<svg xmlns="http://www.w3.org/2000/svg" viewBox="0 0 853.12 321.73"><defs><style>.cls-1{font-size:117.06px;font-family:Cabin-Bold, Cabin;font-weight:700;letter-spacing:0.09em;}.cls-1,.cls-4{fill:#00a2ff;}.cls-2{letter-spacing:0.1em;}.cls-3{letter-spacing:0.1em;}</style></defs><g id="Layer_2" data-name="Layer 2"><g id="Logo_Structure" data-name="Logo Structure"><text class="cls-1" transform="translate(397.4 193.05)">M<tspan class="cls-2" x="108.52" y="0">O</tspan><tspan class="cls-3" x="209.19" y="0">K</tspan><tspan class="cls-2" x="293.71" y="0">SY</tspan></text><path class="cls-4" d="M232.38,260.44v-2.3c0-37.7,0-75.4-.12-113.09,0-12.18-6-21.19-17-26-10.75-4.75-21.29-3.49-30.62,4.22a31.7,31.7,0,0,0-5,5.68,5.28,5.28,0,0,0-.73,3.49q0,34.32,0,68.64a14.78,14.78,0,0,1-29,4,24.08,24.08,0,0,1-.72-6.77c0-17.83.06-35.66,0-53.49,0-13.84-11.19-26.41-24.75-28.13-14.65-1.85-28.37,7-32.11,20.75a29.76,29.76,0,0,0-1,8q0,26,0,52a31.12,31.12,0,0,1-.7,7,14.5,14.5,0,0,1-28.48-1.08,39.15,39.15,0,0,1-.47-5.82c0-18.73-.32-37.46.14-56.18.63-25.8,21.2-49.16,46.62-53.54,19.64-3.39,37.17,1,51.82,14.92,1.91,1.82,2.57.32,3.59-.62,21-19.27,52.92-20.83,75.32-3.44,15,11.65,22.73,27.14,22.77,46.2.09,37.61,0,75.23,0,112.85v2.91a6.67,6.67,0,0,0,2.67-2.12c19.78-21.68,33.18-46.65,37.25-75.9,6.38-45.82-6.14-86-37.83-119.86a136,136,0,0,0-79.06-42.14C143.66,13.9,106,23.33,72.9,49.25c-28,22-45.65,50.7-51.84,85.72-8.12,45.92,3.39,86.88,34.49,121.75,22.64,25.39,51.3,40.25,84.92,45.44,3.61.56,7.28.8,10.93,1,5.39.3,9.13,4.09,9.09,9.44a9.05,9.05,0,0,1-9.43,9.11,128.31,128.31,0,0,1-28.18-4.08,158.24,158.24,0,0,1-77.8-44.76C21.2,248,6.44,218.52,1.73,184.34c-6.41-46.56,5-88.55,34.61-125.06C61.62,28.13,94.37,8.79,134,2.39c51.4-8.3,97,5.05,135.72,39.9,28,25.2,44.95,56.88,50.47,94.2,7.54,51-6.8,95.58-41.13,133.74a78.89,78.89,0,0,1-27.8,20.28,9.91,9.91,0,0,1-8,.11c-7.18-2.93-13.35-7.4-19.14-12.45a146.68,146.68,0,0,1-17.53-18.32c-3.84-4.76-3.55-10.44.67-13.88s9.91-2.59,13.73,2.1c3.14,3.85,6.48,7.52,10,11.06C231.3,259.46,231.65,259.76,232.38,260.44Z"/></g></g></svg>